PathFileType	4	(X/Y/Z)	/Users/niels/Desktop/University/Third Semester/Perception and Action/Exam/Gymnastics Motion Tracking/Code for Gym Tracking/Analyzed Data/Webcam_Backflip/id3_2_trajectory_Sports2D/id3_2_trajectory_Sports2D_px_person00.trc
DataRate	CameraRate	NumFrames	NumMarkers	Units	OrigDataRate	OrigDataStartFrame	OrigNumFrames
29.8125	29.8125	8	22	m	29.8125	120	160
Frame#	Time	Hip			RHip			RKnee			RAnkle			RBigToe			RSmallToe			RHeel			LHip			LKnee			LAnkle			LBigToe			LSmallToe			LHeel			Neck			Head			Nose			RShoulder			RElbow			RWrist			LShoulder			LElbow			LWrist		
		X1	Y1	Z1	X2	Y2	Z2	X3	Y3	Z3	X4	Y4	Z4	X5	Y5	Z5	X6	Y6	Z6	X7	Y7	Z7	X8	Y8	Z8	X9	Y9	Z9	X10	Y10	Z10	X11	Y11	Z11	X12	Y12	Z12	X13	Y13	Z13	X14	Y14	Z14	X15	Y15	Z15	X16	Y16	Z16	X17	Y17	Z17	X18	Y18	Z18	X19	Y19	Z19	X20	Y20	Z20	X21	Y21	Z21	X22	Y22	Z22
120	4.025157232704402	1.2219598604587147	-0.5569003840140819	0.0	1.2268979842631234	-0.554746191963129	0.0	1.219010192309954	-0.6695743370479186	0.0	1.2027200554718702	-0.7912753291773983	0.0	1.2401584271918291	-0.8150653062580636	0.0	1.2315480010915363	-0.8180036428750683	0.0	1.1930403004354577	-0.8084302123627217	0.0	1.2139250359006115	-0.5543724064812791	0.0	1.2036747402837384	-0.6670435857379702	0.0	1.1899303808625403	-0.7815113046733148	0.0	1.2325545626372347	-0.8025078904474632	0.0	1.222381294343716	-0.7976060880285201	0.0	1.178324152152769	-0.798407148650798	0.0	1.218639094489222	-0.3872845855869801	0.0	1.22601291382563	-0.3127084873504887	0.0	1.250213764119685	-0.34839151292037346	0.0	1.2254881083102531	-0.4102065947192096	0.0	1.1833958563939835	-0.4840143282484154	0.0	1.1710629763621396	-0.5585426879794857	0.0	1.2011097036508247	-0.4096806780346172	0.0	1.1752161332836204	-0.48117665003171445	0.0	1.1681286203896226	-0.5459736741707238	0.0
121	4.058700209643606	1.2190241305377971	-0.5637962420570373	0.0	1.2246083830128434	-0.5621483456592079	0.0	1.2170811067692	-0.6749033719628674	0.0	1.2016869450958114	-0.7956720125379337	0.0	1.2384989438294498	-0.817528858216345	0.0	1.2303796740821056	-0.820831297021525	0.0	1.1929879409656292	-0.8125118162463051	0.0	1.2103552626954706	-0.5619732613913221	0.0	1.201975727800605	-0.6722848370893245	0.0	1.1886148453910181	-0.786701109096589	0.0	1.2329093628179497	-0.8065215062121995	0.0	1.2225041546481228	-0.8012687637389432	0.0	1.1771303270716342	-0.8030707865634766	0.0	1.218240810609177	-0.3913361180520153	0.0	1.223479343827947	-0.31837590056045817	0.0	1.2489946512222965	-0.3541572488176663	0.0	1.224179193523728	-0.41576621259472896	0.0	1.19277053813074	-0.49340204310648056	0.0	1.1870274029080092	-0.5693109248211407	0.0	1.200736016147321	-0.41456462147216244	0.0	1.1822546045168878	-0.4900097594541236	0.0	1.182480989560175	-0.5574132878246697	0.0
122	4.092243186582809	1.2159447694343437	-0.5701365464428094	0.0	1.2219877175177407	-0.5690069861955274	0.0	1.2152764693894005	-0.6800890127566802	0.0	1.2004661681228928	-0.7999910213128073	0.0	1.2372664531186397	-0.8196245428146185	0.0	1.2295027898771709	-0.8233652275345107	0.0	1.1922375449228437	-0.8165741083368349	0.0	1.2075910629127333	-0.5689163434013946	0.0	1.201066390720369	-0.677453103811724	0.0	1.1879165192925472	-0.7918291759027112	0.0	1.2336413721259751	-0.8105050731716564	0.0	1.2232889170339305	-0.8055153539251396	0.0	1.176256374238279	-0.8077678569184202	0.0	1.2172685318354486	-0.3954859570588974	0.0	1.2205314647368715	-0.3235704963121339	0.0	1.2472439166713722	-0.359810678849923	0.0	1.222026791639101	-0.4213924710700414	0.0	1.2033221297478127	-0.5024942656433694	0.0	1.2070231876444568	-0.5786771690057114	0.0	1.2001633738972546	-0.41929382943463706	0.0	1.1903396717073362	-0.49827685602609867	0.0	1.1997106543362537	-0.5674451952540459	0.0
123	4.125786163522012	1.2130125617973957	-0.575212867053959	0.0	1.2191967604269227	-0.5744389683122872	0.0	1.2137422958692432	-0.6845538397475125	0.0	1.19922176006468	-0.8039871796834154	0.0	1.2369286475615904	-0.8213134246073531	0.0	1.2293518314898393	-0.8255328717220526	0.0	1.1907991559467763	-0.8202777334995002	0.0	1.2057264079429888	-0.5743028000878536	0.0	1.2009464608550162	-0.6819407696328518	0.0	1.1878551266302324	-0.7964507400691356	0.0	1.2346041705870954	-0.8139759658057225	0.0	1.2244539405241965	-0.8097493799749416	0.0	1.1758635488595925	-0.8120073686141075	0.0	1.2157923513883166	-0.3996279193023239	0.0	1.2176070650451085	-0.3278454955686065	0.0	1.2451712419423515	-0.3649331478069607	0.0	1.2194225216392764	-0.426650649797002	0.0	1.2142875099289199	-0.5101821724054523	0.0	1.229786402205385	-0.5849492418684114	0.0	1.199321422859123	-0.4236256063607202	0.0	1.198863378473864	-0.5052474607020282	0.0	1.2184068690905816	-0.5745978939986737	0.0
124	4.159329140461216	1.2105052025182894	-0.5786258578803775	0.0	1.2164650449518557	-0.5778669507593585	0.0	1.212495820444415	-0.6878983168150486	0.0	1.1980943782710944	-0.8073308336034983	0.0	1.237618888146955	-0.8226159253656381	0.0	1.2300493789967637	-0.8273363306843496	0.0	1.1889220734067285	-0.8232961066526515	0.0	1.2046159662853122	-0.5775670299351301	0.0	1.2013602034268591	-0.6853059258935444	0.0	1.188264809446536	-0.8001792880962659	0.0	1.235481683050283	-0.8165943575592018	0.0	1.225488410084349	-0.8133162339921186	0.0	1.1759673584281962	-0.8154144039549361	0.0	1.214018412865533	-0.40358662289367625	0.0	1.2151151547232877	-0.3308989694301648	0.0	1.2431067085436647	-0.3691729629087918	0.0	1.2168211680965804	-0.4311167188470773	0.0	1.2249501165032861	-0.5156381385925727	0.0	1.253444829751209	-0.58707848809174	0.0	1.1982407646556885	-0.4273385221016819	0.0	1.2072884642341979	-0.5103750439436504	0.0	1.2369768912397316	-0.5778989995880666	0.0
125	4.192872117400419	1.2085381797002286	-0.5803774704537829	0.0	1.213942285831072	-0.5792343514355937	0.0	1.2113655841442583	-0.6900203762580599	0.0	1.197124027457954	-0.8097425624092138	0.0	1.2389343458460345	-0.8235786670161755	0.0	1.2312564330310014	-0.8288233610188389	0.0	1.1870306035506013	-0.8254292707226637	0.0	1.2040147146673776	-0.5786986312966877	0.0	1.2019964411622805	-0.6874221517986407	0.0	1.1889662548550037	-0.8027917726306208	0.0	1.2359221859216833	-0.8183512321859364	0.0	1.2259611459541804	-0.8159315919712099	0.0	1.1764571789998577	-0.8178745445975315	0.0	1.2121831197054218	-0.40712223723015045	0.0	1.2132850427707977	-0.3325354047983917	0.0	1.2413348260540011	-0.3722590448173322	0.0	1.2146120949910726	-0.43441504205338294	0.0	1.2347047923769605	-0.5184652677837912	0.0	1.2759927249083587	-0.5846844404022407	0.0	1.197026788544578	-0.43020044965207466	0.0	1.2151199893593645	-0.5132462012096245	0.0	1.2539473959635374	-0.5768053665270432	0.0
126	4.226415094339622	1.2070161786557083	-0.5807391389534845	0.0	1.2116326964829192	-0.578900875563638	0.0	1.210113133600622	-0.6910368907757044	0.0	1.1963122167275062	-0.81107389809182	0.0	1.240239906776223	-0.8242024411526815	0.0	1.2324483413788014	-0.8299755853463433	0.0	1.1855808000951058	-0.8265710983829632	0.0	1.2036698307126614	-0.5781476311908404	0.0	1.2026004184409698	-0.688436713969998	0.0	1.189838361165812	-0.8042394460216512	0.0	1.2357479223025625	-0.8194186205005903	0.0	1.225752513989693	-0.8176344853392108	0.0	1.1771616978982853	-0.8194046192786356	0.0	1.210500068274363	-0.40991244834686325	0.0	1.2121652266981877	-0.3327513894281431	0.0	1.239988283835514	-0.37404007500765896	0.0	1.2130396129170145	-0.43628261782298705	0.0	1.2430640906638313	-0.5186857644888536	0.0	1.295699594657085	-0.5779884357398795	0.0	1.1957765704480274	-0.43199792224779293	0.0	1.2216135778049262	-0.5136650894279573	0.0	1.2677008204887052	-0.5713234076572181	0.0
127	4.259958071278826	1.2057412752696206	-0.5799827827211297	0.0	1.209499312284725	-0.5773082279693961	0.0	1.2086411202443312	-0.6910642012179518	0.0	1.1956948608004696	-0.8112893149237272	0.0	1.2411275580079688	-0.8244071602955567	0.0	1.2332760058661087	-0.830616747646588	0.0	1.1848086149595067	-0.8266524620968295	0.0	1.2033549321533625	-0.5764613117510088	0.0	1.2029751942273974	-0.6885339420644675	0.0	1.1907624871801032	-0.8045423066778872	0.0	1.2350467736221686	-0.8198701644921167	0.0	1.2250391441036281	-0.8184569031160847	0.0	1.177874765652961	-0.8199441991632614	0.0	1.2091219684657082	-0.41156291469828327	0.0	1.211659245570543	-0.3317544029231372	0.0	1.2390511342758306	-0.3744762514130011	0.0	1.212140396098729	-0.4366059415490077	0.0	1.2497091371497058	-0.5165756160262791	0.0	1.311398609849457	-0.5678201540773664	0.0	1.194539439947388	-0.43258078374856584	0.0	1.2259442869455786	-0.511755697626758	0.0	1.276578565373818	-0.5622445380504417	0.0
